# xmcd
#
# Track frame offsets: 
#        187
#        17775
#        37330
#        56832
#        72750
#        90027
#        110537
#        129335
#        150360
#        170845
#
# Disc length: 2506 seconds
#
# Revision: 2
# Processed by: cddbd v1.5.2PL0 Copyright (c) Steve Scherf et al.
# Submitted via: ExactAudioCopy v1.3
#
DISCID=7d09c80a
DTITLE=トーマス．ハーデン．トリオ - ＪＡＺＺで聴く　ハイドン＆ヘンデル
DYEAR=2005
DGENRE=Jazz
TTITLE0=ハイドン：弦楽四重奏曲第77番「皇帝」
TTITLE1=ハイドン：交響曲第94番「驚愕」第２楽章
TTITLE2=ハイドン：弦楽四重奏曲第17番「セレナード」
TTITLE3=ハイドン：おもちゃのシンフォニー
TTITLE4=ハイドン：弦楽四重奏曲第67番「ひばり」
TTITLE5=ヘンデル：ラルゴ
TTITLE6=ヘンデル：ハープシコード組曲第１巻第５曲「調子のよい鍛冶屋」
TTITLE7=ヘンデル：組曲「」水上の音楽」
TTITLE8=ヘンデル：ブーレー
TTITLE9=ヘンデル：メサイヤより「ハレルヤ」
EXTD=YEAR: 2006
EXTT0=
EXTT1=
EXTT2=
EXTT3=
EXTT4=
EXTT5=
EXTT6=
EXTT7=
EXTT8=
EXTT9=
PLAYORDER=
